<svg width="44" height="44" viewBox="0 0 44 44" fill="none" xmlns="http://www.w3.org/2000/svg">
<path d="M25.8874 13.5391C22.7239 13.5391 19.6059 14.8972 17.2254 17.5673V4.40002H12.5148V26.5696C12.5148 33.766 18.3488 39.5999 25.5455 39.5999C32.7422 39.5999 38.5763 33.766 38.5763 26.5696C38.5763 19.3731 33.0841 13.5391 25.8874 13.5391ZM25.5455 34.5811C21.1207 34.5811 17.5336 30.9941 17.5336 26.5695C17.5336 22.1448 21.1207 18.5578 25.5455 18.5578C29.9703 18.5578 33.5573 22.1448 33.5573 26.5695C33.5573 30.9942 29.9703 34.5811 25.5455 34.5811Z" fill="#262626"/>
<path d="M9.08896 33.1556C7.30929 33.1556 5.86667 34.5982 5.86667 36.3778C5.86667 38.1573 7.30929 39.6 9.08896 39.6C10.8686 39.6 12.3112 38.1573 12.3112 36.3778C12.3112 34.5982 10.8686 33.1556 9.08896 33.1556Z" fill="#0000FF"/>
</svg>
